<svg xmlns="http://www.w3.org/2000/svg" version="1.1" xmlns:xlink="http://www.w3.org/1999/xlink" xmlns:svgjs="http://svgjs.dev/svgjs" width="100%" height="100%" viewBox="0 0 1000 600"><rect width="1000" height="600" x="0" y="0" fill="transparent"/><g><rect width="333.3333333333333" height="333.3333333333333" rx="13.333333333333334" ry="13.333333333333334" y="162.04271653444692" fill="#1d1b1b" transform="matrix(0.8940034110071551,0,0,0.8940034110071551,0,6.132683443692258)" x="139.82049560546875"/><path d="M247.61811715080626 253.70939241560208L365.3562088243366 253.70939241560208L365.3562088243366 268.70939196147145L313.9276389527844 268.70939196147145L313.9276389527844 403.70938787429594L298.92763940691503 403.70938787429594L298.92763940691503 268.70939196147145L247.61811715080626 268.70939196147145L247.61811715080626 253.70939241560208Z " fill="white" transform="matrix(0.8940034110071551,0,0,0.8940034110071551,0,6.132683443692258)"/><path d="M557.5907795609389 400.82772441370054L557.5907795609389 290.46598383899646L573.0414232413975 290.46598383899646L573.0414232413975 400.82772441370054L557.5907795609389 400.82772441370054ZM565.4387255573623 271.1526792384233L565.4387255573623 271.1526792384233Q561.6680327543933 271.1526792384233 559.0929254743169 268.6695400754924Q556.4871621551919 266.18640091256157 556.4871621551919 262.446364148641L556.4871621551919 262.446364148641Q556.4871621551919 258.675671345672 559.0929254743169 256.19253218274116Q561.6680327543933 253.7093930198103 565.4387255573623 253.7093930198103L565.4387255573623 253.7093930198103Q569.0561381650887 253.7093930198103 571.6619014842137 256.19253218274116Q574.2676648033387 258.675671345672 574.2676648033387 262.446364148641L574.2676648033387 262.446364148641Q574.2676648033387 266.18640091256157 571.7232135623108 268.6695400754924Q569.1787623212829 271.1526792384233 565.4387255573623 271.1526792384233ZM614.6416682302512 400.82772441370054L599.1910245497927 400.82772441370054L599.1910245497927 290.46598383899646L614.6416682302512 290.46598383899646L614.6416682302512 305.7020352461153Q620.6195958447144 297.3022805468184 629.8777196373701 292.33600222095674Q639.1358434300258 287.36972389509504 650.1720174874962 287.36972389509504L650.1720174874962 287.36972389509504Q662.6490253802475 287.36972389509504 673.0414226176988 293.50093170480085Q683.4031638161016 299.6321395145066 689.2584672743706 309.77928843956965L689.2584672743706 309.77928843956965Q695.1137707326395 299.6321395145066 705.3528877748482 293.50093170480085Q715.6226608561054 287.36972389509504 728.0996687488566 287.36972389509504L728.0996687488566 287.36972389509504Q740.576676641608 287.36972389509504 750.8464497228651 293.43961962670375Q761.0855667650737 299.5095153583125 767.1554624966825 309.77928843956965Q773.2253582282913 320.04906152082685 773.2253582282913 332.5260694135781L773.2253582282913 332.5260694135781L773.2253582282913 400.82772441370054L757.7747145478327 400.82772441370054L757.7747145478327 335.92888974796483Q757.7747145478327 327.09995050198853 753.4828690810386 319.5892209350989Q749.1910236142446 312.10914740725786 741.9561983987917 307.51074154997855Q734.721373183339 302.9429917317477 725.8924339373626 302.9429917317477L725.8924339373626 302.9429917317477Q717.0634946913863 302.9429917317477 709.8286694759335 307.1735251204447Q702.5938442604806 311.43471454819024 698.3019987936866 318.88413203698275Q694.0101533268926 326.33354952577525 694.0101533268926 335.92888974796483L694.0101533268926 335.92888974796483L694.0101533268926 400.82772441370054L678.559509646434 400.82772441370054L678.559509646434 335.92888974796483Q678.559509646434 326.33354952577525 674.2370081405913 318.88413203698275Q669.9451626737973 311.43471454819024 662.6490253802475 307.1735251204447Q655.3835441257461 302.9429917317477 646.5546048797698 302.9429917317477L646.5546048797698 302.9429917317477Q637.8176337509391 302.9429917317477 630.5521524964377 307.51074154997855Q623.2560152028879 312.10914740725786 618.9641697360937 319.5892209350989Q614.6416682302512 327.09995050198853 614.6416682302512 335.92888974796483L614.6416682302512 335.92888974796483L614.6416682302512 400.82772441370054ZM841.6496373846078 403.7093920842622L841.6496373846078 403.7093920842622Q826.4442420165374 403.7093920842622 813.9059220456891 395.86144608783883Q801.3676020748408 388.01350009141544 793.9181845860483 374.831403300548Q786.4687670972557 361.64930650968057 786.4687670972557 345.6468541263485L786.4687670972557 345.6468541263485Q786.4687670972557 333.5070626631311 790.7912686030983 322.9613852304371Q795.0831140698924 312.41570779774315 802.655155714879 304.4144816060771Q810.1965413208171 296.4132554144111 820.2517221287346 291.9068176742773Q830.306902936652 287.36972389509504 841.6496373846078 287.36972389509504L841.6496373846078 287.36972389509504Q853.9120530040193 287.36972389509504 864.2431381633735 292.24403410381115Q874.5435672836793 297.0876882734787 881.9929847724718 305.7940033632609Q889.4424022612643 314.5309744920917 893.243751103282 326.21092536958116Q897.075755984348 337.9215322861192 896.4013231252804 351.5021575846175L896.4013231252804 351.5021575846175L802.8084359101217 351.5021575846175Q804.1266455892084 361.9865229392144 809.491452422701 370.26365348231724Q814.8562592561934 378.54078402542 823.1640458383449 383.3231261169905Q831.5024884595447 388.13612424760953 841.6496373846078 388.2587484038037L841.6496373846078 388.2587484038037Q852.6858114420781 388.2587484038037 861.5760627661516 382.49541306268026Q870.466314090225 376.76273376060533 875.861776962766 366.73820899173637L875.861776962766 366.73820899173637L891.5576689556128 370.3556215994628Q884.9359645211306 385.03986430370816 871.569931495972 394.3593001744609Q858.2038984708133 403.7093920842622 841.6496373846078 403.7093920842622ZM802.3792513634422 339.02514969186626L802.3792513634422 339.02514969186626L880.8280552886276 339.02514969186626Q880.0616543124145 328.75537661060906 874.6048793617763 320.2023417160695Q869.1481044111382 311.64930682152993 860.5337574385015 306.5297483004256Q851.919410465865 301.37953374027273 841.6496373846078 301.37953374027273L841.6496373846078 301.37953374027273Q831.4105203423991 301.37953374027273 822.8881414869081 306.4071241442315Q814.3964186704656 311.43471454819024 809.0009557979245 319.9877494427298Q803.5748368863349 328.5407843372694 802.3792513634422 339.02514969186626ZM930.7360868596328 400.82772441370054L915.2854431791742 400.82772441370054L915.2854431791742 290.46598383899646L930.7360868596328 290.46598383899646L930.7360868596328 305.7020352461153Q936.5607342788533 297.3022805468184 945.9414822277031 292.33600222095674Q955.3222301765529 287.36972389509504 966.3584042340233 287.36972389509504L966.3584042340233 287.36972389509504Q972.7655163951658 287.36972389509504 978.743444009629 289.0251500037156L978.743444009629 289.0251500037156L972.428299965632 304.38382556702857Q967.7992380693042 302.9429917317477 963.384768446316 302.9429917317477L963.384768446316 302.9429917317477Q954.4638610831942 302.9429917317477 947.0144435944017 307.3574613547359Q939.565026105609 311.771930977724 935.1505564826209 319.16003638841954Q930.7360868596328 326.548141799115 930.7360868596328 335.591673318431L930.7360868596328 335.591673318431L930.7360868596328 400.82772441370054Z " fill="#1d1b1b" transform="matrix(0.8940034110071551,0,0,0.8940034110071551,0,6.132683443692258)"/></g></svg>